HIERARCHY
ROOT Hips
{
  OFFSET 53.8909 86.367 6.81958
  CHANNELS 6 Xposition Yposition Zposition Zrotation Xrotation Yrotation
  JOINT spine
  {
    OFFSET 0 6.84637 0.3937
    CHANNELS 3 Zrotation Xrotation Yrotation
    JOINT spine1
    {
      OFFSET 0 9.49621 0
      CHANNELS 3 Zrotation Xrotation Yrotation
      JOINT spine2
      {
        OFFSET 0 9.09909 0
        CHANNELS 3 Zrotation Xrotation Yrotation
        JOINT Neck
        {
          OFFSET 0 23.3612 1.11378
          CHANNELS 3 Zrotation Xrotation Yrotation
          JOINT Head
          {
            OFFSET 0 7.05802 0
            CHANNELS 3 Zrotation Xrotation Yrotation
            End Site
            {
              OFFSET 0 17.0844 -5.63419
            }
          }
        }
        JOINT RightShoulder
        {
          OFFSET -3.83136 9.82631 -0.533491
          CHANNELS 3 Zrotation Xrotation Yrotation
          JOINT RightArm
          {
            OFFSET 0 12.8881 0
            CHANNELS 3 Zrotation Xrotation Yrotation
            JOINT RightArmRoll
            {
              OFFSET 0 6.50617 0
              CHANNELS 3 Zrotation Xrotation Yrotation
              JOINT RightForeArm
              {
                OFFSET 0 18.9501 0
                CHANNELS 3 Zrotation Xrotation Yrotation
                JOINT RightForeArmRoll
                {
                  OFFSET 0 7.30092 0
                  CHANNELS 3 Zrotation Xrotation Yrotation
                  JOINT RightHand
                  {
                    OFFSET 0 14.6514 0
                    CHANNELS 3 Zrotation Xrotation Yrotation
                    End Site
                    {
                      OFFSET 0 0 0
                    }
                  }
                }
              }
            }
          }
        }
        JOINT LeftShoulder
        {
          OFFSET 3.83136 9.82631 -0.533491
          CHANNELS 3 Zrotation Xrotation Yrotation
          JOINT LeftArm
          {
            OFFSET 0 12.8881 0
            CHANNELS 3 Zrotation Xrotation Yrotation
            JOINT LeftArmRoll
            {
              OFFSET 0 6.50617 0
              CHANNELS 3 Zrotation Xrotation Yrotation
              JOINT LeftForeArm
              {
                OFFSET 0 18.9501 0
                CHANNELS 3 Zrotation Xrotation Yrotation
                JOINT LeftForeArmRoll
                {
                  OFFSET 0 7.30092 0
                  CHANNELS 3 Zrotation Xrotation Yrotation
                  JOINT LeftHand
                  {
                    OFFSET 0 14.6514 0
                    CHANNELS 3 Zrotation Xrotation Yrotation
                    End Site
                    {
                      OFFSET 0 0 0
                    }
                  }
                }
              }
            }
          }
        }
      }
    }
  }
  JOINT RightUpLeg
  {
    OFFSET -6.06837 -1.11278 -0.933477
    CHANNELS 3 Zrotation Xrotation Yrotation
    JOINT RightUpLegRoll
    {
      OFFSET 0 17.1796 0
      CHANNELS 3 Zrotation Xrotation Yrotation
      JOINT RightLeg
      {
        OFFSET 0 -21.2743 0
        CHANNELS 3 Zrotation Xrotation Yrotation
        JOINT RightLegRoll
        {
          OFFSET 0 21.3439 0
          CHANNELS 3 Zrotation Xrotation Yrotation
          JOINT RightFoot
          {
            OFFSET 0 17.7652 0
            CHANNELS 3 Zrotation Xrotation Yrotation
            JOINT RightToeBase
            {
              OFFSET 0 14.8508 0
              CHANNELS 3 Zrotation Xrotation Yrotation
              End Site
              {
                OFFSET 0.0062947 7.19213 -0.829005
              }
            }
          }
        }
      }
    }
  }
  JOINT LeftUpLeg
  {
    OFFSET 6.06837 -1.11278 -0.933477
    CHANNELS 3 Zrotation Xrotation Yrotation
    JOINT LeftUpLegRoll
    {
      OFFSET 0 17.1797 0
      CHANNELS 3 Zrotation Xrotation Yrotation
      JOINT LeftLeg
      {
        OFFSET 0 21.2742 0
        CHANNELS 3 Zrotation Xrotation Yrotation
        JOINT LeftLegRoll
        {
          OFFSET 0 21.5412 0
          CHANNELS 3 Zrotation Xrotation Yrotation
          JOINT LeftFoot
          {
            OFFSET 0 17.5679 0
            CHANNELS 3 Zrotation Xrotation Yrotation
            JOINT LeftToeBase
            {
              OFFSET 0 14.8508 0
              CHANNELS 3 Zrotation Xrotation Yrotation
              End Site
              {
                OFFSET -0.0282102 7.19213 -0.829005
              }
            }
          }
        }
      }
    }
  }
}
MOTION
Frames: 11
Frame Time: 0.00208333
57.9405 87.6279 11.1031 -0.792137 10.7677 -2.44652 0.881246 -2.77541 0.541361 1.77979 -1.54073 1.01115 1.76748 0.103782 0.981329 -19.1397 -8.01854 -6.06081 21.4502 10.1142 -8.42933 43.8718 -9.23888 -5.52541 100.215 2.85308 -41.6522 2.91314e-006 -2.47403e-006 -7.64338e-006 -73.2717 69.4993 61.307 -9.93156e-006 2.34571e-006 -3.0063 8.02919 -4.95143 0.69767 -69.7204 -10.984 6.75056 -79.1476 11.2656 29.2455 1.77466e-007 4.09153e-007 3.01131e-006 50.7696 78.7851 -43.1895 5.94095e-006 -1.4789e-006 3.00369 -8.02891 -4.95142 -0.69769 178.337 19.3541 0.772389 180 7.01573e-015 179.044 173.483 18.5965 -179.272 2.31669e-006 -6.61371e-007 0.475235 -23.3474 71.1079 22.8507 8.14322 25.4043 -3.61368 -178.49 17.7168 -0.68663 4.5067e-006 -1.99009e-005 -0.997492 -4.48687 -21.2565 -0.572388 4.81458e-006 -8.30557e-006 -0.466516 31.3304 75.8166 -30.6324 -8.13915 25.2939 3.4889 
57.9463 87.3838 10.9775 -0.751848 10.7876 -2.48485 0.877736 -2.79251 0.559931 1.77365 -1.57467 1.04887 1.76088 0.0698447 1.01914 -19.0261 -7.67634 -6.013 21.3027 9.75239 -8.35462 44.1 -9.22357 -5.51631 100.073 2.97351 -41.4754 2.91314e-006 -2.47403e-006 -7.64338e-006 -72.5466 69.5738 60.7517 -9.93156e-006 2.34571e-006 -3.0063 8.02919 -4.95143 0.69767 -69.9568 -10.9249 6.7186 -79.2108 11.3954 29.112 1.77466e-007 4.09153e-007 3.01131e-006 49.0304 78.7856 -41.6831 5.94095e-006 -1.4789e-006 3.00369 -8.02891 -4.95142 -0.69769 178.324 19.736 0.874353 180 7.01569e-015 179.023 173.42 19.4401 -179.219 2.31669e-006 -6.61371e-007 0.502479 -24.5811 71.8979 23.8624 8.14037 25.3744 -3.59014 -178.524 17.9219 -0.7608 4.5067e-006 -1.99009e-005 -1.01244 -4.58639 -21.7447 -0.618609 4.81458e-006 -8.30557e-006 -0.49254 32.705 76.2456 -31.7385 -8.13948 25.3015 3.48904 
57.9452 87.2047 10.9834 -0.713287 10.8101 -2.521 0.8748 -2.80957 0.578014 1.76866 -1.6085 1.08556 1.75543 0.0360102 1.0559 -18.9166 -7.34214 -5.96606 21.1587 9.39411 -8.28086 44.3238 -9.20769 -5.50678 99.9382 3.10219 -41.2945 2.91314e-006 -2.47403e-006 -7.64338e-006 -71.771 69.645 60.1539 -9.93156e-006 2.34571e-006 -3.0063 8.02919 -4.95143 0.69767 -70.1912 -10.8671 6.68753 -79.2801 11.5336 28.9779 1.77466e-007 4.09153e-007 3.01131e-006 47.237 78.7721 -40.1292 5.94095e-006 -1.4789e-006 3.00369 -8.02891 -4.95142 -0.69769 178.308 20.1298 0.977426 180 7.01565e-015 179.004 173.352 20.2959 -179.161 2.31669e-006 -6.6137e-007 0.528552 -25.892 72.6734 24.9568 8.13762 25.3452 -3.56729 -178.554 18.1466 -0.835486 4.5067e-006 -1.99009e-005 -1.02629 -4.68807 -22.2592 -0.667642 4.81458e-006 -8.30557e-006 -0.517691 34.1498 76.6724 -32.9234 -8.13977 25.3086 3.48917 
57.9887 86.9989 10.9385 -0.677073 10.8356 -2.55442 0.872573 -2.82647 0.595379 1.76507 -1.64203 1.12076 1.7514 0.00247151 1.09115 -18.8123 -7.01898 -5.92021 21.019 9.04244 -8.20855 44.541 -9.19078 -5.49641 99.8151 3.24012 -41.1077 2.91314e-006 -2.47403e-006 -7.64338e-006 -70.9366 69.7129 59.5069 -9.93156e-006 2.34571e-006 -3.0063 8.02919 -4.95143 0.69767 -70.423 -10.8114 6.65766 -79.3575 11.6801 28.8432 1.77466e-007 4.09153e-007 3.01131e-006 45.3899 78.743 -38.5289 5.94095e-006 -1.4789e-006 3.00369 -8.02891 -4.95142 -0.69769 178.287 20.5337 1.08171 180 7.01561e-015 178.986 173.277 21.1595 -179.099 2.31669e-006 -6.6137e-007 0.552984 -27.2687 73.4234 26.1265 8.13506 25.3177 -3.54571 -178.577 18.3928 -0.910835 4.5067e-006 -1.99009e-005 -1.0387 -4.79209 -22.8019 -0.719701 4.81458e-006 -8.30556e-006 -0.541484 35.655 77.0925 -34.182 -8.14001 25.3148 3.48927 
57.9696 86.8171 10.8981 -0.643824 10.8641 -2.58455 0.871189 -2.84312 0.611794 1.76313 -1.67507 1.15399 1.74905 -0.0305787 1.12441 -18.7141 -6.70989 -5.8757 20.8845 8.70054 -8.13817 44.7497 -9.17239 -5.48478 99.7074 3.38833 -40.9134 2.91314e-006 -2.47403e-006 -7.64338e-006 -70.0348 69.7772 58.804 -9.93156e-006 2.34571e-006 -3.0063 8.02919 -4.95143 0.69767 -70.6513 -10.7583 6.6293 -79.4448 11.8348 28.7081 1.77466e-007 4.09153e-007 3.01131e-006 43.4908 78.6962 -36.8843 5.94095e-006 -1.4789e-006 3.00369 -8.02891 -4.95142 -0.69769 178.261 20.9465 1.1873 180 7.01557e-015 178.97 173.195 22.0264 -179.031 2.31669e-006 -6.61369e-007 0.575304 -28.6947 74.1372 27.3585 8.13274 25.2926 -3.526 -178.592 18.6625 -0.987001 4.5067e-006 -1.99009e-005 -1.0493 -4.89863 -23.3749 -0.77502 4.81458e-006 -8.30556e-006 -0.563436 37.2087 77.5017 -35.5074 -8.14021 25.3201 3.48935 
58.0096 86.5939 10.8569 -0.614161 10.8959 -2.61084 0.87078 -2.85943 0.627031 1.7631 -1.70743 1.18479 1.74863 -0.0629477 1.15519 -18.6233 -6.41788 -5.83274 20.7559 8.37155 -8.07017 44.9476 -9.15205 -5.47145 99.6186 3.54789 -40.7098 2.91314e-006 -2.47403e-006 -7.64338e-006 -69.0573 69.8374 58.0385 -9.93156e-006 2.34571e-006 -3.0063 8.02919 -4.95143 0.69767 -70.8753 -10.7084 6.60275 -79.544 11.9977 28.5728 1.77466e-007 4.09153e-007 3.01131e-006 41.5424 78.6297 -35.1989 5.94095e-006 -1.4789e-006 3.00369 -8.02891 -4.95142 -0.69769 178.229 21.3665 1.2943 180 7.01555e-015 178.956 173.103 22.892 -178.957 2.31669e-006 -6.61369e-007 0.595042 -30.1469 74.8046 28.6334 8.13073 25.2706 -3.50876 -178.597 18.9578 -1.06415 4.5067e-006 -1.99009e-005 -1.05775 -5.00791 -23.9803 -0.833848 4.81458e-006 -8.30555e-006 -0.583064 38.7956 77.896 -36.889 -8.14034 25.3241 3.4894 
58.0051 86.4131 10.8217 -0.588707 10.931 -2.63273 0.87148 -2.87529 0.640857 1.76524 -1.73892 1.21267 1.75042 -0.0944432 1.18303 -18.5407 -6.14601 -5.79156 20.6341 8.05862 -8.00501 45.1326 -9.12931 -5.456 99.5524 3.7199 -40.495 2.91314e-006 -2.47403e-006 -7.64338e-006 -67.9956 69.893 57.2036 -9.93156e-006 2.34571e-006 -3.0063 8.02919 -4.95143 0.69767 -71.0943 -10.6623 6.57832 -79.6568 12.1687 28.4375 1.77466e-007 4.09153e-007 3.01131e-006 39.5489 78.5418 -33.4772 5.94095e-006 -1.4789e-006 3.00369 -8.02891 -4.95142 -0.69769 178.191 21.7922 1.40281 180 7.01552e-015 178.946 173.002 23.7517 -178.877 2.31669e-006 -6.61368e-007 0.611728 -31.5939 75.416 29.9238 8.12908 25.2525 -3.49458 -178.592 19.2807 -1.14244 4.5067e-006 -1.99009e-005 -1.06368 -5.12016 -24.6201 -0.896458 4.81458e-006 -8.30555e-006 -0.599883 40.3973 78.2716 -38.3132 -8.1404 25.3267 3.48942 
58.0551 86.2028 10.7784 -0.568089 10.9697 -2.64965 0.873421 -2.89061 0.653043 1.76978 -1.76934 1.23716 1.75465 -0.124872 1.20743 -18.4676 -5.8973 -5.75236 20.5198 7.7649 -7.94314 45.3027 -9.1037 -5.43802 99.5123 3.90548 -40.2675 2.91314e-006 -2.47403e-006 -7.64338e-006 -66.8412 69.9432 56.2927 -9.93156e-006 2.34571e-006 -3.0063 8.02919 -4.95143 0.69767 -71.3073 -10.6206 6.5563 -79.7853 12.3477 28.3023 1.77466e-007 4.09153e-007 3.01131e-006 37.5157 78.4302 -31.7252 5.94095e-006 -1.4789e-006 3.00369 -8.02891 -4.95142 -0.69769 178.146 22.2222 1.51292 180 7.01551e-015 178.939 172.89 24.6012 -178.791 2.31669e-006 -6.61368e-007 0.624892 -32.9959 75.9624 31.1933 8.12786 25.239 -3.48405 -178.574 19.6331 -1.22207 4.5067e-006 -1.99009e-005 -1.06674 -5.23568 -25.2964 -0.963145 4.81458e-006 -8.30554e-006 -0.613411 41.991 78.6251 -39.7622 -8.14037 25.3277 3.48939 
58.0534 86.0104 10.7367 -0.553496 11.0122 -2.66115 0.876898 -2.90613 0.664935 1.77738 -1.80013 1.26095 1.76195 -0.155674 1.23108 -18.3944 -5.65947 -5.71496 20.4047 7.48035 -7.88375 45.4587 -9.08035 -5.42155 99.4873 4.09885 -40.0393 2.91314e-006 -2.47403e-006 -7.64338e-006 -65.6297 69.9871 55.3344 -9.93156e-006 2.34571e-006 -3.0063 8.02919 -4.95143 0.69767 -71.5093 -10.5806 6.5356 -79.9378 12.5354 28.177 1.77466e-007 4.09153e-007 3.01131e-006 35.4457 78.2946 -29.9466 5.94095e-006 -1.4789e-006 3.00369 -8.02891 -4.95142 -0.69769 178.093 22.6682 1.62663 180 7.0155e-015 178.935 172.761 25.4648 -178.695 2.31669e-006 -6.61367e-007 0.634463 -34.3824 76.462 32.4671 8.127 25.2295 -3.47658 -178.542 20.0259 -1.30336 4.5067e-006 -1.99009e-005 -1.06703 -5.35435 -26.0318 -1.03421 4.81458e-006 -8.30554e-006 -0.6246 43.6292 78.9698 -41.287 -8.14025 25.327 3.48933 
58.0714 85.8311 10.7224 -0.545087 11.0584 -2.66751 0.881972 -2.92248 0.677784 1.78821 -1.83256 1.28655 1.77245 -0.188124 1.25649 -18.3131 -5.41999 -5.67896 20.2819 7.19398 -7.8257 45.604 -9.06356 -5.41003 99.465 4.29452 -39.8215 2.91314e-006 -2.47403e-006 -7.64338e-006 -64.397 70.0241 54.3578 -9.93156e-006 2.34571e-006 -3.0063 8.02919 -4.95143 0.69767 -71.6975 -10.5397 6.51505 -80.1183 12.7324 28.0685 1.77466e-007 4.09153e-007 3.01131e-006 33.3477 78.1357 -28.15 5.94095e-006 -1.4789e-006 3.00369 -8.02891 -4.95142 -0.69769 178.031 23.1406 1.74545 180 7.0155e-015 178.935 172.613 26.3654 -178.585 2.31669e-006 -6.61367e-007 0.640934 -35.8157 76.939 33.7996 8.12637 25.2224 -3.47105 -178.496 20.4645 -1.38648 4.5067e-006 -1.99009e-005 -1.06505 -5.47628 -26.8404 -1.10986 4.81458e-006 -8.30553e-006 -0.634707 45.3883 79.3185 -42.9577 -8.14003 25.3246 3.48922 
58.08 85.6307 10.6769 -0.541942 11.1081 -2.66933 0.888428 -2.93946 0.691223 1.80184 -1.86621 1.31323 1.78573 -0.221789 1.28293 -18.2265 -5.18158 -5.64422 20.1539 6.90751 -7.76892 45.7396 -9.05162 -5.40217 99.447 4.49415 -39.6104 2.91314e-006 -2.47403e-006 -7.64338e-006 -63.1358 70.0537 53.3567 -9.93156e-006 2.34571e-006 -3.0063 8.02919 -4.95143 0.69767 -71.8744 -10.4984 6.49488 -80.322 12.9384 27.973 1.77466e-007 4.09153e-007 3.01131e-006 31.2365 77.9538 -26.3492 5.94095e-006 -1.4789e-006 3.00369 -8.02891 -4.95142 -0.69769 177.961 23.6356 1.86871 180 7.0155e-015 178.936 172.447 27.2966 -178.464 2.31669e-006 -6.61367e-007 0.644677 -37.297 77.3935 35.1911 8.12595 25.2176 -3.46724 -178.438 20.9432 -1.47134 4.5067e-006 -1.99009e-005 -1.06101 -5.60213 -27.7118 -1.19025 4.81458e-006 -8.30553e-006 -0.643706 47.2771 79.6668 -44.78 -8.13974 25.3208 3.48908 
